<mxfile host="app.diagrams.net" modified="2022-11-17T15:34:52.648Z" agent="5.0 (Macintosh; Intel Mac OS X 10_14_6) AppleWebKit/537.36 (KHTML, like Gecko) Chrome/107.0.0.0 Safari/537.36" etag="zaocMKfWw5ekIw_uYs-T" version="20.5.1" type="github">
  <diagram id="ceU_O81jFPpvFsNzQ7Q-" name="第 1 页">
    <mxGraphModel dx="3667" dy="763" grid="1" gridSize="10" guides="1" tooltips="1" connect="1" arrows="1" fold="1" page="1" pageScale="1" pageWidth="827" pageHeight="1169" math="0" shadow="0">
      <root>
        <mxCell id="0" />
        <mxCell id="1" parent="0" />
        <mxCell id="1dTAD1cRlgn7t7FhUrby-3" value="" style="edgeStyle=orthogonalEdgeStyle;rounded=0;orthogonalLoop=1;jettySize=auto;html=1;fontSize=15;" edge="1" parent="1" source="1dTAD1cRlgn7t7FhUrby-1" target="1dTAD1cRlgn7t7FhUrby-2">
          <mxGeometry relative="1" as="geometry">
            <Array as="points">
              <mxPoint x="230" y="480" />
              <mxPoint x="230" y="480" />
            </Array>
          </mxGeometry>
        </mxCell>
        <mxCell id="1dTAD1cRlgn7t7FhUrby-42" value="&lt;span style=&quot;font-size: 15px; background-color: rgb(248, 249, 250);&quot;&gt;1、调用验资接口，&lt;br style=&quot;font-size: 15px;&quot;&gt;决定是否弹窗&lt;/span&gt;" style="edgeLabel;html=1;align=center;verticalAlign=middle;resizable=0;points=[];fontSize=15;" vertex="1" connectable="0" parent="1dTAD1cRlgn7t7FhUrby-3">
          <mxGeometry x="-0.3111" y="-3" relative="1" as="geometry">
            <mxPoint as="offset" />
          </mxGeometry>
        </mxCell>
        <mxCell id="1dTAD1cRlgn7t7FhUrby-33" style="edgeStyle=orthogonalEdgeStyle;rounded=0;orthogonalLoop=1;jettySize=auto;html=1;entryX=0;entryY=0.5;entryDx=0;entryDy=0;exitX=1.008;exitY=0.15;exitDx=0;exitDy=0;exitPerimeter=0;fontSize=15;" edge="1" parent="1" source="1dTAD1cRlgn7t7FhUrby-1" target="1dTAD1cRlgn7t7FhUrby-29">
          <mxGeometry relative="1" as="geometry" />
        </mxCell>
        <mxCell id="1dTAD1cRlgn7t7FhUrby-1" value="通天塔" style="rounded=0;whiteSpace=wrap;html=1;fillColor=#dae8fc;strokeColor=#6c8ebf;fontSize=15;" vertex="1" parent="1">
          <mxGeometry x="210" y="220" width="120" height="60" as="geometry" />
        </mxCell>
        <mxCell id="1dTAD1cRlgn7t7FhUrby-6" value="" style="edgeStyle=orthogonalEdgeStyle;rounded=0;orthogonalLoop=1;jettySize=auto;html=1;fontSize=15;" edge="1" parent="1" source="1dTAD1cRlgn7t7FhUrby-2" target="1dTAD1cRlgn7t7FhUrby-5">
          <mxGeometry relative="1" as="geometry" />
        </mxCell>
        <mxCell id="1dTAD1cRlgn7t7FhUrby-36" style="edgeStyle=orthogonalEdgeStyle;rounded=0;orthogonalLoop=1;jettySize=auto;html=1;exitX=1;exitY=0.75;exitDx=0;exitDy=0;fontSize=15;entryX=0.5;entryY=0;entryDx=0;entryDy=0;entryPerimeter=0;" edge="1" parent="1">
          <mxGeometry relative="1" as="geometry">
            <mxPoint x="330" y="499" as="sourcePoint" />
            <mxPoint x="530" y="614" as="targetPoint" />
          </mxGeometry>
        </mxCell>
        <mxCell id="1dTAD1cRlgn7t7FhUrby-47" value="&lt;span style=&quot;font-size: 15px; background-color: rgb(248, 249, 250);&quot;&gt;6、根据访问链接携带key，&lt;br style=&quot;font-size: 15px;&quot;&gt;从缓存获取关联权益素材信息&lt;/span&gt;" style="edgeLabel;html=1;align=center;verticalAlign=middle;resizable=0;points=[];fontSize=15;" vertex="1" connectable="0" parent="1dTAD1cRlgn7t7FhUrby-36">
          <mxGeometry x="0.49" y="-2" relative="1" as="geometry">
            <mxPoint as="offset" />
          </mxGeometry>
        </mxCell>
        <mxCell id="1dTAD1cRlgn7t7FhUrby-52" style="edgeStyle=orthogonalEdgeStyle;rounded=0;orthogonalLoop=1;jettySize=auto;html=1;exitX=0.842;exitY=1.033;exitDx=0;exitDy=0;entryX=1;entryY=0.5;entryDx=0;entryDy=0;fontSize=15;fontColor=#66FF66;exitPerimeter=0;" edge="1" parent="1" source="1dTAD1cRlgn7t7FhUrby-2">
          <mxGeometry relative="1" as="geometry">
            <mxPoint x="309.99999999999994" y="510.48" as="sourcePoint" />
            <mxPoint x="591.96" y="230" as="targetPoint" />
            <Array as="points">
              <mxPoint x="311" y="570" />
              <mxPoint x="312" y="570" />
              <mxPoint x="312" y="580" />
              <mxPoint x="721" y="580" />
              <mxPoint x="721" y="230" />
            </Array>
          </mxGeometry>
        </mxCell>
        <mxCell id="1dTAD1cRlgn7t7FhUrby-53" value="7、返回弹窗展示权益素材数据" style="edgeLabel;html=1;align=center;verticalAlign=middle;resizable=0;points=[];fontSize=15;fontColor=#330000;" vertex="1" connectable="0" parent="1dTAD1cRlgn7t7FhUrby-52">
          <mxGeometry x="0.3878" y="2" relative="1" as="geometry">
            <mxPoint as="offset" />
          </mxGeometry>
        </mxCell>
        <mxCell id="1dTAD1cRlgn7t7FhUrby-2" value="千目" style="rounded=0;whiteSpace=wrap;html=1;fillColor=#d5e8d4;strokeColor=#82b366;fontSize=15;" vertex="1" parent="1">
          <mxGeometry x="210" y="460" width="120" height="60" as="geometry" />
        </mxCell>
        <mxCell id="1dTAD1cRlgn7t7FhUrby-9" value="" style="edgeStyle=orthogonalEdgeStyle;rounded=0;orthogonalLoop=1;jettySize=auto;html=1;fontSize=15;" edge="1" parent="1" source="1dTAD1cRlgn7t7FhUrby-5" target="1dTAD1cRlgn7t7FhUrby-8">
          <mxGeometry relative="1" as="geometry" />
        </mxCell>
        <mxCell id="1dTAD1cRlgn7t7FhUrby-43" value="&lt;span style=&quot;color: rgba(0, 0, 0, 0); font-family: monospace; font-size: 15px; text-align: start; background-color: rgb(248, 249, 250);&quot;&gt;%3CmxGraphModel%3E%3Croot%3E%3CmxCell%20id%3D%220%22%2F%3E%3CmxCell%20id%3D%221%22%20parent%3D%220%22%2F%3E%3CmxCell%20id%3D%222%22%20value%3D%22%E9%80%9A%E8%BF%87%22%20style%3D%22text%3Bhtml%3D1%3BstrokeColor%3Dnone%3BfillColor%3Dnone%3Balign%3Dcenter%3BverticalAlign%3Dmiddle%3BwhiteSpace%3Dwrap%3Brounded%3D0%3B%22%20vertex%3D%221%22%20parent%3D%221%22%3E%3CmxGeometry%20x%3D%22280%22%20y%3D%22675%22%20width%3D%2260%22%20height%3D%2230%22%20as%3D%22geometry%22%2F%3E%3C%2FmxCell%3E%3C%2Froot%3E%3C%2FmxGraphModel%3E&lt;/span&gt;" style="edgeLabel;html=1;align=center;verticalAlign=middle;resizable=0;points=[];fontSize=15;" vertex="1" connectable="0" parent="1dTAD1cRlgn7t7FhUrby-9">
          <mxGeometry x="-0.0429" y="4" relative="1" as="geometry">
            <mxPoint y="1" as="offset" />
          </mxGeometry>
        </mxCell>
        <mxCell id="1dTAD1cRlgn7t7FhUrby-44" value="&lt;span style=&quot;color: rgba(0, 0, 0, 0); font-family: monospace; font-size: 15px; text-align: start; background-color: rgb(248, 249, 250);&quot;&gt;%3CmxGraphModel%3E%3Croot%3E%3CmxCell%20id%3D%220%22%2F%3E%3CmxCell%20id%3D%221%22%20parent%3D%220%22%2F%3E%3CmxCell%20id%3D%222%22%20value%3D%22%E9%80%9A%E8%BF%87%22%20style%3D%22text%3Bhtml%3D1%3BstrokeColor%3Dnone%3BfillColor%3Dnone%3Balign%3Dcenter%3BverticalAlign%3Dmiddle%3BwhiteSpace%3Dwrap%3Brounded%3D0%3B%22%20vertex%3D%221%22%20parent%3D%221%22%3E%3CmxGeometry%20x%3D%22280%22%20y%3D%22675%22%20width%3D%2260%22%20height%3D%2230%22%20as%3D%22geometry%22%2F%3E%3C%2FmxCell%3E%3C%2Froot%3E%3C%2FmxGraphModel%3E&lt;/span&gt;" style="edgeLabel;html=1;align=center;verticalAlign=middle;resizable=0;points=[];fontSize=15;" vertex="1" connectable="0" parent="1dTAD1cRlgn7t7FhUrby-9">
          <mxGeometry x="-0.3857" y="1" relative="1" as="geometry">
            <mxPoint as="offset" />
          </mxGeometry>
        </mxCell>
        <mxCell id="1dTAD1cRlgn7t7FhUrby-45" value="满足干预条件" style="edgeLabel;html=1;align=center;verticalAlign=middle;resizable=0;points=[];fontSize=15;" vertex="1" connectable="0" parent="1dTAD1cRlgn7t7FhUrby-9">
          <mxGeometry x="-0.2714" relative="1" as="geometry">
            <mxPoint as="offset" />
          </mxGeometry>
        </mxCell>
        <mxCell id="1dTAD1cRlgn7t7FhUrby-32" style="edgeStyle=orthogonalEdgeStyle;rounded=0;orthogonalLoop=1;jettySize=auto;html=1;entryX=0;entryY=0.5;entryDx=0;entryDy=0;fontSize=15;" edge="1" parent="1">
          <mxGeometry relative="1" as="geometry">
            <mxPoint x="230" y="611" as="sourcePoint" />
            <mxPoint x="210" y="251" as="targetPoint" />
            <Array as="points">
              <mxPoint x="190" y="611" />
              <mxPoint x="190" y="251" />
            </Array>
          </mxGeometry>
        </mxCell>
        <mxCell id="1dTAD1cRlgn7t7FhUrby-40" value="&lt;span style=&quot;font-size: 15px; background-color: rgb(248, 249, 250);&quot;&gt;2.1、未通过，&lt;br style=&quot;font-size: 15px;&quot;&gt;返回不弹窗标识&lt;/span&gt;" style="edgeLabel;html=1;align=center;verticalAlign=middle;resizable=0;points=[];fontSize=15;" vertex="1" connectable="0" parent="1dTAD1cRlgn7t7FhUrby-32">
          <mxGeometry x="0.2262" y="2" relative="1" as="geometry">
            <mxPoint y="1" as="offset" />
          </mxGeometry>
        </mxCell>
        <mxCell id="1dTAD1cRlgn7t7FhUrby-5" value="验资是否通过" style="rhombus;whiteSpace=wrap;html=1;fontSize=15;" vertex="1" parent="1">
          <mxGeometry x="230" y="570" width="80" height="80" as="geometry" />
        </mxCell>
        <mxCell id="1dTAD1cRlgn7t7FhUrby-15" style="edgeStyle=orthogonalEdgeStyle;rounded=0;orthogonalLoop=1;jettySize=auto;html=1;exitX=0.5;exitY=1;exitDx=0;exitDy=0;entryX=-0.008;entryY=0.15;entryDx=0;entryDy=0;entryPerimeter=0;fontSize=15;" edge="1" parent="1" target="1dTAD1cRlgn7t7FhUrby-1">
          <mxGeometry relative="1" as="geometry">
            <mxPoint x="270" y="880" as="sourcePoint" />
            <mxPoint x="200" y="230" as="targetPoint" />
            <Array as="points">
              <mxPoint x="270" y="900" />
              <mxPoint x="80" y="900" />
              <mxPoint x="80" y="230" />
            </Array>
          </mxGeometry>
        </mxCell>
        <mxCell id="1dTAD1cRlgn7t7FhUrby-41" value="&lt;span style=&quot;font-size: 15px; background-color: rgb(248, 249, 250);&quot;&gt;2.2、通过，返回弹窗标识&lt;br style=&quot;font-size: 15px;&quot;&gt;和弹窗访问链接&lt;/span&gt;" style="edgeLabel;html=1;align=center;verticalAlign=middle;resizable=0;points=[];fontSize=15;" vertex="1" connectable="0" parent="1dTAD1cRlgn7t7FhUrby-15">
          <mxGeometry x="0.0552" y="3" relative="1" as="geometry">
            <mxPoint as="offset" />
          </mxGeometry>
        </mxCell>
        <mxCell id="1dTAD1cRlgn7t7FhUrby-18" value="" style="edgeStyle=orthogonalEdgeStyle;rounded=0;orthogonalLoop=1;jettySize=auto;html=1;fontSize=15;" edge="1" parent="1" source="1dTAD1cRlgn7t7FhUrby-8" target="1dTAD1cRlgn7t7FhUrby-17">
          <mxGeometry relative="1" as="geometry" />
        </mxCell>
        <mxCell id="1dTAD1cRlgn7t7FhUrby-35" style="edgeStyle=orthogonalEdgeStyle;rounded=0;orthogonalLoop=1;jettySize=auto;html=1;entryX=0.5;entryY=1;entryDx=0;entryDy=0;entryPerimeter=0;fontSize=15;" edge="1" parent="1" source="1dTAD1cRlgn7t7FhUrby-8" target="1dTAD1cRlgn7t7FhUrby-34">
          <mxGeometry relative="1" as="geometry" />
        </mxCell>
        <mxCell id="1dTAD1cRlgn7t7FhUrby-8" value="保存权益素材信息到缓存" style="whiteSpace=wrap;html=1;fontSize=15;" vertex="1" parent="1">
          <mxGeometry x="210" y="721" width="120" height="60" as="geometry" />
        </mxCell>
        <mxCell id="1dTAD1cRlgn7t7FhUrby-17" value="生成弹窗访问链接信息" style="whiteSpace=wrap;html=1;fontSize=15;" vertex="1" parent="1">
          <mxGeometry x="210" y="820" width="120" height="60" as="geometry" />
        </mxCell>
        <mxCell id="1dTAD1cRlgn7t7FhUrby-30" style="edgeStyle=orthogonalEdgeStyle;rounded=0;orthogonalLoop=1;jettySize=auto;html=1;entryX=1;entryY=0.5;entryDx=0;entryDy=0;exitX=0.5;exitY=1;exitDx=0;exitDy=0;fontSize=15;" edge="1" parent="1">
          <mxGeometry relative="1" as="geometry">
            <mxPoint x="530" y="244" as="sourcePoint" />
            <mxPoint x="330" y="475" as="targetPoint" />
            <Array as="points">
              <mxPoint x="530" y="475" />
            </Array>
          </mxGeometry>
        </mxCell>
        <mxCell id="1dTAD1cRlgn7t7FhUrby-46" value="&lt;span style=&quot;font-size: 15px; background-color: rgb(248, 249, 250);&quot;&gt;5、通过千目返回的访问链接，&lt;br style=&quot;font-size: 15px;&quot;&gt;获取权益素材数据&lt;/span&gt;" style="edgeLabel;html=1;align=center;verticalAlign=middle;resizable=0;points=[];fontSize=15;" vertex="1" connectable="0" parent="1dTAD1cRlgn7t7FhUrby-30">
          <mxGeometry x="-0.4919" y="2" relative="1" as="geometry">
            <mxPoint y="1" as="offset" />
          </mxGeometry>
        </mxCell>
        <mxCell id="1dTAD1cRlgn7t7FhUrby-29" value="4、打开弹窗" style="rounded=0;whiteSpace=wrap;html=1;fontSize=15;" vertex="1" parent="1">
          <mxGeometry x="470" y="210" width="120" height="39" as="geometry" />
        </mxCell>
        <mxCell id="1dTAD1cRlgn7t7FhUrby-34" value="JIMDB" style="shape=cylinder3;whiteSpace=wrap;html=1;boundedLbl=1;backgroundOutline=1;size=15;fontSize=15;" vertex="1" parent="1">
          <mxGeometry x="470" y="610" width="120" height="50" as="geometry" />
        </mxCell>
        <mxCell id="1dTAD1cRlgn7t7FhUrby-38" value="key：pin+设备id+渠道，value：权益素材信息&lt;br style=&quot;font-size: 15px;&quot;&gt;&lt;br style=&quot;font-size: 15px;&quot;&gt;缓存5s" style="text;html=1;strokeColor=none;fillColor=none;align=left;verticalAlign=middle;whiteSpace=wrap;rounded=0;fontSize=15;" vertex="1" parent="1">
          <mxGeometry x="533" y="690" width="317" height="60" as="geometry" />
        </mxCell>
        <mxCell id="1dTAD1cRlgn7t7FhUrby-39" value="3、验资通过" style="text;html=1;strokeColor=none;fillColor=none;align=center;verticalAlign=middle;whiteSpace=wrap;rounded=0;fontSize=15;" vertex="1" parent="1">
          <mxGeometry x="354" y="200" width="86" height="30" as="geometry" />
        </mxCell>
      </root>
    </mxGraphModel>
  </diagram>
</mxfile>
